<mxfile host="app.diagrams.net" modified="2024-04-20T16:17:13.410Z" agent="Mozilla/5.0 (Macintosh; Intel Mac OS X 10_15_7) AppleWebKit/605.1.15 (KHTML, like Gecko) Version/17.4.1 Safari/605.1.15" etag="xgikIIty7xH1LUe8e5h6" version="24.2.7" type="github">
  <diagram name="Page-1" id="NSXWw4dMk-TTgiilFc9_">
    <mxGraphModel dx="1085" dy="1455" grid="1" gridSize="10" guides="1" tooltips="1" connect="1" arrows="1" fold="1" page="1" pageScale="1" pageWidth="827" pageHeight="1169" math="0" shadow="0">
      <root>
        <mxCell id="0" />
        <mxCell id="1" parent="0" />
        <mxCell id="Ulziz3JBnXMaHyI9gNog-5" value="Utilisateur" style="swimlane;fontStyle=0;childLayout=stackLayout;horizontal=1;startSize=30;horizontalStack=0;resizeParent=1;resizeParentMax=0;resizeLast=0;collapsible=1;marginBottom=0;whiteSpace=wrap;html=1;" vertex="1" parent="1">
          <mxGeometry x="440" y="120" width="380" height="350" as="geometry" />
        </mxCell>
        <mxCell id="Ulziz3JBnXMaHyI9gNog-6" value="id : int" style="text;strokeColor=none;fillColor=none;align=left;verticalAlign=middle;spacingLeft=4;spacingRight=4;overflow=hidden;points=[[0,0.5],[1,0.5]];portConstraint=eastwest;rotatable=0;whiteSpace=wrap;html=1;" vertex="1" parent="Ulziz3JBnXMaHyI9gNog-5">
          <mxGeometry y="30" width="380" height="30" as="geometry" />
        </mxCell>
        <mxCell id="Ulziz3JBnXMaHyI9gNog-7" value="nom : string" style="text;strokeColor=none;fillColor=none;align=left;verticalAlign=middle;spacingLeft=4;spacingRight=4;overflow=hidden;points=[[0,0.5],[1,0.5]];portConstraint=eastwest;rotatable=0;whiteSpace=wrap;html=1;" vertex="1" parent="Ulziz3JBnXMaHyI9gNog-5">
          <mxGeometry y="60" width="380" height="30" as="geometry" />
        </mxCell>
        <mxCell id="Ulziz3JBnXMaHyI9gNog-8" value="prénom : string" style="text;strokeColor=none;fillColor=none;align=left;verticalAlign=middle;spacingLeft=4;spacingRight=4;overflow=hidden;points=[[0,0.5],[1,0.5]];portConstraint=eastwest;rotatable=0;whiteSpace=wrap;html=1;" vertex="1" parent="Ulziz3JBnXMaHyI9gNog-5">
          <mxGeometry y="90" width="380" height="30" as="geometry" />
        </mxCell>
        <mxCell id="Ulziz3JBnXMaHyI9gNog-9" value="age : int" style="text;strokeColor=none;fillColor=none;align=left;verticalAlign=middle;spacingLeft=4;spacingRight=4;overflow=hidden;points=[[0,0.5],[1,0.5]];portConstraint=eastwest;rotatable=0;whiteSpace=wrap;html=1;" vertex="1" parent="Ulziz3JBnXMaHyI9gNog-5">
          <mxGeometry y="120" width="380" height="30" as="geometry" />
        </mxCell>
        <mxCell id="Ulziz3JBnXMaHyI9gNog-73" value="swipes: array" style="text;strokeColor=none;fillColor=none;align=left;verticalAlign=middle;spacingLeft=4;spacingRight=4;overflow=hidden;points=[[0,0.5],[1,0.5]];portConstraint=eastwest;rotatable=0;whiteSpace=wrap;html=1;" vertex="1" parent="Ulziz3JBnXMaHyI9gNog-5">
          <mxGeometry y="150" width="380" height="30" as="geometry" />
        </mxCell>
        <mxCell id="Ulziz3JBnXMaHyI9gNog-10" value="email : string" style="text;strokeColor=none;fillColor=none;align=left;verticalAlign=middle;spacingLeft=4;spacingRight=4;overflow=hidden;points=[[0,0.5],[1,0.5]];portConstraint=eastwest;rotatable=0;whiteSpace=wrap;html=1;" vertex="1" parent="Ulziz3JBnXMaHyI9gNog-5">
          <mxGeometry y="180" width="380" height="30" as="geometry" />
        </mxCell>
        <mxCell id="Ulziz3JBnXMaHyI9gNog-11" value="password : string" style="text;strokeColor=none;fillColor=none;align=left;verticalAlign=middle;spacingLeft=4;spacingRight=4;overflow=hidden;points=[[0,0.5],[1,0.5]];portConstraint=eastwest;rotatable=0;whiteSpace=wrap;html=1;" vertex="1" parent="Ulziz3JBnXMaHyI9gNog-5">
          <mxGeometry y="210" width="380" height="30" as="geometry" />
        </mxCell>
        <mxCell id="Ulziz3JBnXMaHyI9gNog-15" value="________________________________________________________" style="text;strokeColor=none;fillColor=none;align=left;verticalAlign=middle;spacingLeft=4;spacingRight=4;overflow=hidden;points=[[0,0.5],[1,0.5]];portConstraint=eastwest;rotatable=0;whiteSpace=wrap;html=1;" vertex="1" parent="Ulziz3JBnXMaHyI9gNog-5">
          <mxGeometry y="240" width="380" height="20" as="geometry" />
        </mxCell>
        <mxCell id="Ulziz3JBnXMaHyI9gNog-12" value="login (email: string, password: string): boolean" style="text;strokeColor=none;fillColor=none;align=left;verticalAlign=middle;spacingLeft=4;spacingRight=4;overflow=hidden;points=[[0,0.5],[1,0.5]];portConstraint=eastwest;rotatable=0;whiteSpace=wrap;html=1;strokeWidth=3;" vertex="1" parent="Ulziz3JBnXMaHyI9gNog-5">
          <mxGeometry y="260" width="380" height="30" as="geometry" />
        </mxCell>
        <mxCell id="Ulziz3JBnXMaHyI9gNog-13" value="setUser(nom: string, prénom: string, age: int, email:string): void" style="text;strokeColor=none;fillColor=none;align=left;verticalAlign=middle;spacingLeft=4;spacingRight=4;overflow=hidden;points=[[0,0.5],[1,0.5]];portConstraint=eastwest;rotatable=0;whiteSpace=wrap;html=1;" vertex="1" parent="Ulziz3JBnXMaHyI9gNog-5">
          <mxGeometry y="290" width="380" height="30" as="geometry" />
        </mxCell>
        <mxCell id="Ulziz3JBnXMaHyI9gNog-14" value="getUser(): User" style="text;strokeColor=none;fillColor=none;align=left;verticalAlign=middle;spacingLeft=4;spacingRight=4;overflow=hidden;points=[[0,0.5],[1,0.5]];portConstraint=eastwest;rotatable=0;whiteSpace=wrap;html=1;strokeWidth=3;" vertex="1" parent="Ulziz3JBnXMaHyI9gNog-5">
          <mxGeometry y="320" width="380" height="30" as="geometry" />
        </mxCell>
        <mxCell id="Ulziz3JBnXMaHyI9gNog-16" value="CentreInterets" style="swimlane;fontStyle=0;childLayout=stackLayout;horizontal=1;startSize=30;horizontalStack=0;resizeParent=1;resizeParentMax=0;resizeLast=0;collapsible=1;marginBottom=0;whiteSpace=wrap;html=1;" vertex="1" parent="1">
          <mxGeometry x="270" y="520" width="140" height="200" as="geometry" />
        </mxCell>
        <mxCell id="Ulziz3JBnXMaHyI9gNog-17" value="user_id: int" style="text;strokeColor=none;fillColor=none;align=left;verticalAlign=middle;spacingLeft=4;spacingRight=4;overflow=hidden;points=[[0,0.5],[1,0.5]];portConstraint=eastwest;rotatable=0;whiteSpace=wrap;html=1;" vertex="1" parent="Ulziz3JBnXMaHyI9gNog-16">
          <mxGeometry y="30" width="140" height="30" as="geometry" />
        </mxCell>
        <mxCell id="Ulziz3JBnXMaHyI9gNog-18" value="nature : boolean" style="text;strokeColor=none;fillColor=none;align=left;verticalAlign=middle;spacingLeft=4;spacingRight=4;overflow=hidden;points=[[0,0.5],[1,0.5]];portConstraint=eastwest;rotatable=0;whiteSpace=wrap;html=1;" vertex="1" parent="Ulziz3JBnXMaHyI9gNog-16">
          <mxGeometry y="60" width="140" height="30" as="geometry" />
        </mxCell>
        <mxCell id="Ulziz3JBnXMaHyI9gNog-19" value="culture : boolean" style="text;strokeColor=none;fillColor=none;align=left;verticalAlign=middle;spacingLeft=4;spacingRight=4;overflow=hidden;points=[[0,0.5],[1,0.5]];portConstraint=eastwest;rotatable=0;whiteSpace=wrap;html=1;" vertex="1" parent="Ulziz3JBnXMaHyI9gNog-16">
          <mxGeometry y="90" width="140" height="30" as="geometry" />
        </mxCell>
        <mxCell id="Ulziz3JBnXMaHyI9gNog-20" value="road_trip: boolean" style="text;strokeColor=none;fillColor=none;align=left;verticalAlign=middle;spacingLeft=4;spacingRight=4;overflow=hidden;points=[[0,0.5],[1,0.5]];portConstraint=eastwest;rotatable=0;whiteSpace=wrap;html=1;" vertex="1" parent="Ulziz3JBnXMaHyI9gNog-16">
          <mxGeometry y="120" width="140" height="30" as="geometry" />
        </mxCell>
        <mxCell id="Ulziz3JBnXMaHyI9gNog-22" value="___________________" style="text;strokeColor=none;fillColor=none;align=left;verticalAlign=middle;spacingLeft=4;spacingRight=4;overflow=hidden;points=[[0,0.5],[1,0.5]];portConstraint=eastwest;rotatable=0;whiteSpace=wrap;html=1;" vertex="1" parent="Ulziz3JBnXMaHyI9gNog-16">
          <mxGeometry y="150" width="140" height="20" as="geometry" />
        </mxCell>
        <mxCell id="Ulziz3JBnXMaHyI9gNog-21" value="setInterests() : void" style="text;strokeColor=none;fillColor=none;align=left;verticalAlign=middle;spacingLeft=4;spacingRight=4;overflow=hidden;points=[[0,0.5],[1,0.5]];portConstraint=eastwest;rotatable=0;whiteSpace=wrap;html=1;" vertex="1" parent="Ulziz3JBnXMaHyI9gNog-16">
          <mxGeometry y="170" width="140" height="30" as="geometry" />
        </mxCell>
        <mxCell id="Ulziz3JBnXMaHyI9gNog-23" value="Preferences" style="swimlane;fontStyle=0;childLayout=stackLayout;horizontal=1;startSize=30;horizontalStack=0;resizeParent=1;resizeParentMax=0;resizeLast=0;collapsible=1;marginBottom=0;whiteSpace=wrap;html=1;" vertex="1" parent="1">
          <mxGeometry x="450" y="520" width="180" height="260" as="geometry" />
        </mxCell>
        <mxCell id="Ulziz3JBnXMaHyI9gNog-24" value="user_id : int" style="text;strokeColor=none;fillColor=none;align=left;verticalAlign=middle;spacingLeft=4;spacingRight=4;overflow=hidden;points=[[0,0.5],[1,0.5]];portConstraint=eastwest;rotatable=0;whiteSpace=wrap;html=1;" vertex="1" parent="Ulziz3JBnXMaHyI9gNog-23">
          <mxGeometry y="30" width="180" height="30" as="geometry" />
        </mxCell>
        <mxCell id="Ulziz3JBnXMaHyI9gNog-25" value="age_groupe : string" style="text;strokeColor=none;fillColor=none;align=left;verticalAlign=middle;spacingLeft=4;spacingRight=4;overflow=hidden;points=[[0,0.5],[1,0.5]];portConstraint=eastwest;rotatable=0;whiteSpace=wrap;html=1;" vertex="1" parent="Ulziz3JBnXMaHyI9gNog-23">
          <mxGeometry y="60" width="180" height="30" as="geometry" />
        </mxCell>
        <mxCell id="Ulziz3JBnXMaHyI9gNog-26" value="handicap: string" style="text;strokeColor=none;fillColor=none;align=left;verticalAlign=middle;spacingLeft=4;spacingRight=4;overflow=hidden;points=[[0,0.5],[1,0.5]];portConstraint=eastwest;rotatable=0;whiteSpace=wrap;html=1;" vertex="1" parent="Ulziz3JBnXMaHyI9gNog-23">
          <mxGeometry y="90" width="180" height="30" as="geometry" />
        </mxCell>
        <mxCell id="Ulziz3JBnXMaHyI9gNog-27" value="vegan: string" style="text;strokeColor=none;fillColor=none;align=left;verticalAlign=middle;spacingLeft=4;spacingRight=4;overflow=hidden;points=[[0,0.5],[1,0.5]];portConstraint=eastwest;rotatable=0;whiteSpace=wrap;html=1;" vertex="1" parent="Ulziz3JBnXMaHyI9gNog-23">
          <mxGeometry y="120" width="180" height="30" as="geometry" />
        </mxCell>
        <mxCell id="Ulziz3JBnXMaHyI9gNog-28" value="buget: float" style="text;strokeColor=none;fillColor=none;align=left;verticalAlign=middle;spacingLeft=4;spacingRight=4;overflow=hidden;points=[[0,0.5],[1,0.5]];portConstraint=eastwest;rotatable=0;whiteSpace=wrap;html=1;" vertex="1" parent="Ulziz3JBnXMaHyI9gNog-23">
          <mxGeometry y="150" width="180" height="30" as="geometry" />
        </mxCell>
        <mxCell id="Ulziz3JBnXMaHyI9gNog-30" value="_________________________" style="text;strokeColor=none;fillColor=none;align=left;verticalAlign=middle;spacingLeft=4;spacingRight=4;overflow=hidden;points=[[0,0.5],[1,0.5]];portConstraint=eastwest;rotatable=0;whiteSpace=wrap;html=1;" vertex="1" parent="Ulziz3JBnXMaHyI9gNog-23">
          <mxGeometry y="180" width="180" height="20" as="geometry" />
        </mxCell>
        <mxCell id="Ulziz3JBnXMaHyI9gNog-29" value="setPreferences(): void" style="text;strokeColor=none;fillColor=none;align=left;verticalAlign=middle;spacingLeft=4;spacingRight=4;overflow=hidden;points=[[0,0.5],[1,0.5]];portConstraint=eastwest;rotatable=0;whiteSpace=wrap;html=1;" vertex="1" parent="Ulziz3JBnXMaHyI9gNog-23">
          <mxGeometry y="200" width="180" height="30" as="geometry" />
        </mxCell>
        <mxCell id="Ulziz3JBnXMaHyI9gNog-40" value="getPreferences(): array" style="text;strokeColor=none;fillColor=none;align=left;verticalAlign=middle;spacingLeft=4;spacingRight=4;overflow=hidden;points=[[0,0.5],[1,0.5]];portConstraint=eastwest;rotatable=0;whiteSpace=wrap;html=1;" vertex="1" parent="Ulziz3JBnXMaHyI9gNog-23">
          <mxGeometry y="230" width="180" height="30" as="geometry" />
        </mxCell>
        <mxCell id="Ulziz3JBnXMaHyI9gNog-31" value="Filters" style="swimlane;fontStyle=0;childLayout=stackLayout;horizontal=1;startSize=30;horizontalStack=0;resizeParent=1;resizeParentMax=0;resizeLast=0;collapsible=1;marginBottom=0;whiteSpace=wrap;html=1;" vertex="1" parent="1">
          <mxGeometry x="670" y="520" width="140" height="230" as="geometry" />
        </mxCell>
        <mxCell id="Ulziz3JBnXMaHyI9gNog-32" value="user_id: int" style="text;strokeColor=none;fillColor=none;align=left;verticalAlign=middle;spacingLeft=4;spacingRight=4;overflow=hidden;points=[[0,0.5],[1,0.5]];portConstraint=eastwest;rotatable=0;whiteSpace=wrap;html=1;" vertex="1" parent="Ulziz3JBnXMaHyI9gNog-31">
          <mxGeometry y="30" width="140" height="30" as="geometry" />
        </mxCell>
        <mxCell id="Ulziz3JBnXMaHyI9gNog-33" value="duration : int" style="text;strokeColor=none;fillColor=none;align=left;verticalAlign=middle;spacingLeft=4;spacingRight=4;overflow=hidden;points=[[0,0.5],[1,0.5]];portConstraint=eastwest;rotatable=0;whiteSpace=wrap;html=1;" vertex="1" parent="Ulziz3JBnXMaHyI9gNog-31">
          <mxGeometry y="60" width="140" height="30" as="geometry" />
        </mxCell>
        <mxCell id="Ulziz3JBnXMaHyI9gNog-34" value="destination: string" style="text;strokeColor=none;fillColor=none;align=left;verticalAlign=middle;spacingLeft=4;spacingRight=4;overflow=hidden;points=[[0,0.5],[1,0.5]];portConstraint=eastwest;rotatable=0;whiteSpace=wrap;html=1;" vertex="1" parent="Ulziz3JBnXMaHyI9gNog-31">
          <mxGeometry y="90" width="140" height="30" as="geometry" />
        </mxCell>
        <mxCell id="Ulziz3JBnXMaHyI9gNog-35" value="transport: string" style="text;strokeColor=none;fillColor=none;align=left;verticalAlign=middle;spacingLeft=4;spacingRight=4;overflow=hidden;points=[[0,0.5],[1,0.5]];portConstraint=eastwest;rotatable=0;whiteSpace=wrap;html=1;" vertex="1" parent="Ulziz3JBnXMaHyI9gNog-31">
          <mxGeometry y="120" width="140" height="30" as="geometry" />
        </mxCell>
        <mxCell id="Ulziz3JBnXMaHyI9gNog-41" value="___________________" style="text;strokeColor=none;fillColor=none;align=left;verticalAlign=middle;spacingLeft=4;spacingRight=4;overflow=hidden;points=[[0,0.5],[1,0.5]];portConstraint=eastwest;rotatable=0;whiteSpace=wrap;html=1;" vertex="1" parent="Ulziz3JBnXMaHyI9gNog-31">
          <mxGeometry y="150" width="140" height="20" as="geometry" />
        </mxCell>
        <mxCell id="Ulziz3JBnXMaHyI9gNog-36" value="setFilters(): void" style="text;strokeColor=none;fillColor=none;align=left;verticalAlign=middle;spacingLeft=4;spacingRight=4;overflow=hidden;points=[[0,0.5],[1,0.5]];portConstraint=eastwest;rotatable=0;whiteSpace=wrap;html=1;" vertex="1" parent="Ulziz3JBnXMaHyI9gNog-31">
          <mxGeometry y="170" width="140" height="30" as="geometry" />
        </mxCell>
        <mxCell id="Ulziz3JBnXMaHyI9gNog-37" value="getFilter() : array" style="text;strokeColor=none;fillColor=none;align=left;verticalAlign=middle;spacingLeft=4;spacingRight=4;overflow=hidden;points=[[0,0.5],[1,0.5]];portConstraint=eastwest;rotatable=0;whiteSpace=wrap;html=1;" vertex="1" parent="Ulziz3JBnXMaHyI9gNog-31">
          <mxGeometry y="200" width="140" height="30" as="geometry" />
        </mxCell>
        <mxCell id="Ulziz3JBnXMaHyI9gNog-81" style="edgeStyle=orthogonalEdgeStyle;rounded=0;orthogonalLoop=1;jettySize=auto;html=1;" edge="1" parent="1" source="Ulziz3JBnXMaHyI9gNog-42" target="Ulziz3JBnXMaHyI9gNog-67">
          <mxGeometry relative="1" as="geometry" />
        </mxCell>
        <mxCell id="Ulziz3JBnXMaHyI9gNog-96" value="1" style="edgeLabel;html=1;align=center;verticalAlign=middle;resizable=0;points=[];" vertex="1" connectable="0" parent="Ulziz3JBnXMaHyI9gNog-81">
          <mxGeometry x="-0.8508" relative="1" as="geometry">
            <mxPoint as="offset" />
          </mxGeometry>
        </mxCell>
        <mxCell id="Ulziz3JBnXMaHyI9gNog-97" value="1" style="edgeLabel;html=1;align=center;verticalAlign=middle;resizable=0;points=[];" vertex="1" connectable="0" parent="Ulziz3JBnXMaHyI9gNog-81">
          <mxGeometry x="0.8211" y="-2" relative="1" as="geometry">
            <mxPoint as="offset" />
          </mxGeometry>
        </mxCell>
        <mxCell id="Ulziz3JBnXMaHyI9gNog-42" value="UserTravel" style="swimlane;fontStyle=0;childLayout=stackLayout;horizontal=1;startSize=30;horizontalStack=0;resizeParent=1;resizeParentMax=0;resizeLast=0;collapsible=1;marginBottom=0;whiteSpace=wrap;html=1;" vertex="1" parent="1">
          <mxGeometry x="840" y="520" width="180" height="260" as="geometry" />
        </mxCell>
        <mxCell id="Ulziz3JBnXMaHyI9gNog-43" value="user_id : int" style="text;strokeColor=none;fillColor=none;align=left;verticalAlign=middle;spacingLeft=4;spacingRight=4;overflow=hidden;points=[[0,0.5],[1,0.5]];portConstraint=eastwest;rotatable=0;whiteSpace=wrap;html=1;" vertex="1" parent="Ulziz3JBnXMaHyI9gNog-42">
          <mxGeometry y="30" width="180" height="30" as="geometry" />
        </mxCell>
        <mxCell id="Ulziz3JBnXMaHyI9gNog-44" value="destination_id: int" style="text;strokeColor=none;fillColor=none;align=left;verticalAlign=middle;spacingLeft=4;spacingRight=4;overflow=hidden;points=[[0,0.5],[1,0.5]];portConstraint=eastwest;rotatable=0;whiteSpace=wrap;html=1;" vertex="1" parent="Ulziz3JBnXMaHyI9gNog-42">
          <mxGeometry y="60" width="180" height="30" as="geometry" />
        </mxCell>
        <mxCell id="Ulziz3JBnXMaHyI9gNog-45" value="accommodation_id: id" style="text;strokeColor=none;fillColor=none;align=left;verticalAlign=middle;spacingLeft=4;spacingRight=4;overflow=hidden;points=[[0,0.5],[1,0.5]];portConstraint=eastwest;rotatable=0;whiteSpace=wrap;html=1;" vertex="1" parent="Ulziz3JBnXMaHyI9gNog-42">
          <mxGeometry y="90" width="180" height="30" as="geometry" />
        </mxCell>
        <mxCell id="Ulziz3JBnXMaHyI9gNog-46" value="restaurant_id: int" style="text;strokeColor=none;fillColor=none;align=left;verticalAlign=middle;spacingLeft=4;spacingRight=4;overflow=hidden;points=[[0,0.5],[1,0.5]];portConstraint=eastwest;rotatable=0;whiteSpace=wrap;html=1;" vertex="1" parent="Ulziz3JBnXMaHyI9gNog-42">
          <mxGeometry y="120" width="180" height="30" as="geometry" />
        </mxCell>
        <mxCell id="Ulziz3JBnXMaHyI9gNog-47" value="activity_id: int" style="text;strokeColor=none;fillColor=none;align=left;verticalAlign=middle;spacingLeft=4;spacingRight=4;overflow=hidden;points=[[0,0.5],[1,0.5]];portConstraint=eastwest;rotatable=0;whiteSpace=wrap;html=1;" vertex="1" parent="Ulziz3JBnXMaHyI9gNog-42">
          <mxGeometry y="150" width="180" height="30" as="geometry" />
        </mxCell>
        <mxCell id="Ulziz3JBnXMaHyI9gNog-51" value="payment_status: string" style="text;strokeColor=none;fillColor=none;align=left;verticalAlign=middle;spacingLeft=4;spacingRight=4;overflow=hidden;points=[[0,0.5],[1,0.5]];portConstraint=eastwest;rotatable=0;whiteSpace=wrap;html=1;" vertex="1" parent="Ulziz3JBnXMaHyI9gNog-42">
          <mxGeometry y="180" width="180" height="30" as="geometry" />
        </mxCell>
        <mxCell id="Ulziz3JBnXMaHyI9gNog-48" value="_________________________" style="text;strokeColor=none;fillColor=none;align=left;verticalAlign=middle;spacingLeft=4;spacingRight=4;overflow=hidden;points=[[0,0.5],[1,0.5]];portConstraint=eastwest;rotatable=0;whiteSpace=wrap;html=1;" vertex="1" parent="Ulziz3JBnXMaHyI9gNog-42">
          <mxGeometry y="210" width="180" height="20" as="geometry" />
        </mxCell>
        <mxCell id="Ulziz3JBnXMaHyI9gNog-49" value="payer(): void" style="text;strokeColor=none;fillColor=none;align=left;verticalAlign=middle;spacingLeft=4;spacingRight=4;overflow=hidden;points=[[0,0.5],[1,0.5]];portConstraint=eastwest;rotatable=0;whiteSpace=wrap;html=1;" vertex="1" parent="Ulziz3JBnXMaHyI9gNog-42">
          <mxGeometry y="230" width="180" height="30" as="geometry" />
        </mxCell>
        <mxCell id="Ulziz3JBnXMaHyI9gNog-52" value="Restaurant" style="swimlane;fontStyle=0;childLayout=stackLayout;horizontal=1;startSize=30;horizontalStack=0;resizeParent=1;resizeParentMax=0;resizeLast=0;collapsible=1;marginBottom=0;whiteSpace=wrap;html=1;" vertex="1" parent="1">
          <mxGeometry x="330" y="870" width="180" height="200" as="geometry" />
        </mxCell>
        <mxCell id="Ulziz3JBnXMaHyI9gNog-53" value="id: int" style="text;strokeColor=none;fillColor=none;align=left;verticalAlign=middle;spacingLeft=4;spacingRight=4;overflow=hidden;points=[[0,0.5],[1,0.5]];portConstraint=eastwest;rotatable=0;whiteSpace=wrap;html=1;" vertex="1" parent="Ulziz3JBnXMaHyI9gNog-52">
          <mxGeometry y="30" width="180" height="30" as="geometry" />
        </mxCell>
        <mxCell id="Ulziz3JBnXMaHyI9gNog-54" value="name : string" style="text;strokeColor=none;fillColor=none;align=left;verticalAlign=middle;spacingLeft=4;spacingRight=4;overflow=hidden;points=[[0,0.5],[1,0.5]];portConstraint=eastwest;rotatable=0;whiteSpace=wrap;html=1;" vertex="1" parent="Ulziz3JBnXMaHyI9gNog-52">
          <mxGeometry y="60" width="180" height="30" as="geometry" />
        </mxCell>
        <mxCell id="Ulziz3JBnXMaHyI9gNog-74" value="prix: int" style="text;strokeColor=none;fillColor=none;align=left;verticalAlign=middle;spacingLeft=4;spacingRight=4;overflow=hidden;points=[[0,0.5],[1,0.5]];portConstraint=eastwest;rotatable=0;whiteSpace=wrap;html=1;" vertex="1" parent="Ulziz3JBnXMaHyI9gNog-52">
          <mxGeometry y="90" width="180" height="30" as="geometry" />
        </mxCell>
        <mxCell id="Ulziz3JBnXMaHyI9gNog-55" value="description : string" style="text;strokeColor=none;fillColor=none;align=left;verticalAlign=middle;spacingLeft=4;spacingRight=4;overflow=hidden;points=[[0,0.5],[1,0.5]];portConstraint=eastwest;rotatable=0;whiteSpace=wrap;html=1;" vertex="1" parent="Ulziz3JBnXMaHyI9gNog-52">
          <mxGeometry y="120" width="180" height="30" as="geometry" />
        </mxCell>
        <mxCell id="Ulziz3JBnXMaHyI9gNog-59" value="_________________________" style="text;strokeColor=none;fillColor=none;align=left;verticalAlign=middle;spacingLeft=4;spacingRight=4;overflow=hidden;points=[[0,0.5],[1,0.5]];portConstraint=eastwest;rotatable=0;whiteSpace=wrap;html=1;" vertex="1" parent="Ulziz3JBnXMaHyI9gNog-52">
          <mxGeometry y="150" width="180" height="20" as="geometry" />
        </mxCell>
        <mxCell id="Ulziz3JBnXMaHyI9gNog-60" value="getRestaurant(): array" style="text;strokeColor=none;fillColor=none;align=left;verticalAlign=middle;spacingLeft=4;spacingRight=4;overflow=hidden;points=[[0,0.5],[1,0.5]];portConstraint=eastwest;rotatable=0;whiteSpace=wrap;html=1;" vertex="1" parent="Ulziz3JBnXMaHyI9gNog-52">
          <mxGeometry y="170" width="180" height="30" as="geometry" />
        </mxCell>
        <mxCell id="Ulziz3JBnXMaHyI9gNog-61" value="Hébergement" style="swimlane;fontStyle=0;childLayout=stackLayout;horizontal=1;startSize=30;horizontalStack=0;resizeParent=1;resizeParentMax=0;resizeLast=0;collapsible=1;marginBottom=0;whiteSpace=wrap;html=1;" vertex="1" parent="1">
          <mxGeometry x="540" y="870" width="180" height="200" as="geometry" />
        </mxCell>
        <mxCell id="Ulziz3JBnXMaHyI9gNog-62" value="id: int" style="text;strokeColor=none;fillColor=none;align=left;verticalAlign=middle;spacingLeft=4;spacingRight=4;overflow=hidden;points=[[0,0.5],[1,0.5]];portConstraint=eastwest;rotatable=0;whiteSpace=wrap;html=1;" vertex="1" parent="Ulziz3JBnXMaHyI9gNog-61">
          <mxGeometry y="30" width="180" height="30" as="geometry" />
        </mxCell>
        <mxCell id="Ulziz3JBnXMaHyI9gNog-63" value="name : string" style="text;strokeColor=none;fillColor=none;align=left;verticalAlign=middle;spacingLeft=4;spacingRight=4;overflow=hidden;points=[[0,0.5],[1,0.5]];portConstraint=eastwest;rotatable=0;whiteSpace=wrap;html=1;" vertex="1" parent="Ulziz3JBnXMaHyI9gNog-61">
          <mxGeometry y="60" width="180" height="30" as="geometry" />
        </mxCell>
        <mxCell id="Ulziz3JBnXMaHyI9gNog-64" value="description : string" style="text;strokeColor=none;fillColor=none;align=left;verticalAlign=middle;spacingLeft=4;spacingRight=4;overflow=hidden;points=[[0,0.5],[1,0.5]];portConstraint=eastwest;rotatable=0;whiteSpace=wrap;html=1;" vertex="1" parent="Ulziz3JBnXMaHyI9gNog-61">
          <mxGeometry y="90" width="180" height="30" as="geometry" />
        </mxCell>
        <mxCell id="Ulziz3JBnXMaHyI9gNog-75" value="prix: int" style="text;strokeColor=none;fillColor=none;align=left;verticalAlign=middle;spacingLeft=4;spacingRight=4;overflow=hidden;points=[[0,0.5],[1,0.5]];portConstraint=eastwest;rotatable=0;whiteSpace=wrap;html=1;" vertex="1" parent="Ulziz3JBnXMaHyI9gNog-61">
          <mxGeometry y="120" width="180" height="30" as="geometry" />
        </mxCell>
        <mxCell id="Ulziz3JBnXMaHyI9gNog-65" value="_________________________" style="text;strokeColor=none;fillColor=none;align=left;verticalAlign=middle;spacingLeft=4;spacingRight=4;overflow=hidden;points=[[0,0.5],[1,0.5]];portConstraint=eastwest;rotatable=0;whiteSpace=wrap;html=1;" vertex="1" parent="Ulziz3JBnXMaHyI9gNog-61">
          <mxGeometry y="150" width="180" height="20" as="geometry" />
        </mxCell>
        <mxCell id="Ulziz3JBnXMaHyI9gNog-66" value="getHebergements(): array" style="text;strokeColor=none;fillColor=none;align=left;verticalAlign=middle;spacingLeft=4;spacingRight=4;overflow=hidden;points=[[0,0.5],[1,0.5]];portConstraint=eastwest;rotatable=0;whiteSpace=wrap;html=1;" vertex="1" parent="Ulziz3JBnXMaHyI9gNog-61">
          <mxGeometry y="170" width="180" height="30" as="geometry" />
        </mxCell>
        <mxCell id="Ulziz3JBnXMaHyI9gNog-67" value="Destination" style="swimlane;fontStyle=0;childLayout=stackLayout;horizontal=1;startSize=30;horizontalStack=0;resizeParent=1;resizeParentMax=0;resizeLast=0;collapsible=1;marginBottom=0;whiteSpace=wrap;html=1;" vertex="1" parent="1">
          <mxGeometry x="740" y="870" width="180" height="200" as="geometry" />
        </mxCell>
        <mxCell id="Ulziz3JBnXMaHyI9gNog-68" value="id: int" style="text;strokeColor=none;fillColor=none;align=left;verticalAlign=middle;spacingLeft=4;spacingRight=4;overflow=hidden;points=[[0,0.5],[1,0.5]];portConstraint=eastwest;rotatable=0;whiteSpace=wrap;html=1;" vertex="1" parent="Ulziz3JBnXMaHyI9gNog-67">
          <mxGeometry y="30" width="180" height="30" as="geometry" />
        </mxCell>
        <mxCell id="Ulziz3JBnXMaHyI9gNog-69" value="name : string" style="text;strokeColor=none;fillColor=none;align=left;verticalAlign=middle;spacingLeft=4;spacingRight=4;overflow=hidden;points=[[0,0.5],[1,0.5]];portConstraint=eastwest;rotatable=0;whiteSpace=wrap;html=1;" vertex="1" parent="Ulziz3JBnXMaHyI9gNog-67">
          <mxGeometry y="60" width="180" height="30" as="geometry" />
        </mxCell>
        <mxCell id="Ulziz3JBnXMaHyI9gNog-76" value="prix: int" style="text;strokeColor=none;fillColor=none;align=left;verticalAlign=middle;spacingLeft=4;spacingRight=4;overflow=hidden;points=[[0,0.5],[1,0.5]];portConstraint=eastwest;rotatable=0;whiteSpace=wrap;html=1;" vertex="1" parent="Ulziz3JBnXMaHyI9gNog-67">
          <mxGeometry y="90" width="180" height="30" as="geometry" />
        </mxCell>
        <mxCell id="Ulziz3JBnXMaHyI9gNog-70" value="description : string" style="text;strokeColor=none;fillColor=none;align=left;verticalAlign=middle;spacingLeft=4;spacingRight=4;overflow=hidden;points=[[0,0.5],[1,0.5]];portConstraint=eastwest;rotatable=0;whiteSpace=wrap;html=1;" vertex="1" parent="Ulziz3JBnXMaHyI9gNog-67">
          <mxGeometry y="120" width="180" height="30" as="geometry" />
        </mxCell>
        <mxCell id="Ulziz3JBnXMaHyI9gNog-71" value="_________________________" style="text;strokeColor=none;fillColor=none;align=left;verticalAlign=middle;spacingLeft=4;spacingRight=4;overflow=hidden;points=[[0,0.5],[1,0.5]];portConstraint=eastwest;rotatable=0;whiteSpace=wrap;html=1;" vertex="1" parent="Ulziz3JBnXMaHyI9gNog-67">
          <mxGeometry y="150" width="180" height="20" as="geometry" />
        </mxCell>
        <mxCell id="Ulziz3JBnXMaHyI9gNog-72" value="getDestination(): array" style="text;strokeColor=none;fillColor=none;align=left;verticalAlign=middle;spacingLeft=4;spacingRight=4;overflow=hidden;points=[[0,0.5],[1,0.5]];portConstraint=eastwest;rotatable=0;whiteSpace=wrap;html=1;" vertex="1" parent="Ulziz3JBnXMaHyI9gNog-67">
          <mxGeometry y="170" width="180" height="30" as="geometry" />
        </mxCell>
        <mxCell id="Ulziz3JBnXMaHyI9gNog-77" style="edgeStyle=orthogonalEdgeStyle;rounded=0;orthogonalLoop=1;jettySize=auto;html=1;" edge="1" parent="1" source="Ulziz3JBnXMaHyI9gNog-14" target="Ulziz3JBnXMaHyI9gNog-16">
          <mxGeometry relative="1" as="geometry" />
        </mxCell>
        <mxCell id="Ulziz3JBnXMaHyI9gNog-85" value="1...1" style="edgeLabel;html=1;align=center;verticalAlign=middle;resizable=0;points=[];" vertex="1" connectable="0" parent="Ulziz3JBnXMaHyI9gNog-77">
          <mxGeometry x="0.8011" relative="1" as="geometry">
            <mxPoint as="offset" />
          </mxGeometry>
        </mxCell>
        <mxCell id="Ulziz3JBnXMaHyI9gNog-87" value="1" style="edgeLabel;html=1;align=center;verticalAlign=middle;resizable=0;points=[];" vertex="1" connectable="0" parent="Ulziz3JBnXMaHyI9gNog-77">
          <mxGeometry x="-0.8845" y="4" relative="1" as="geometry">
            <mxPoint as="offset" />
          </mxGeometry>
        </mxCell>
        <mxCell id="Ulziz3JBnXMaHyI9gNog-78" style="edgeStyle=orthogonalEdgeStyle;rounded=0;orthogonalLoop=1;jettySize=auto;html=1;" edge="1" parent="1" source="Ulziz3JBnXMaHyI9gNog-14" target="Ulziz3JBnXMaHyI9gNog-23">
          <mxGeometry relative="1" as="geometry">
            <Array as="points">
              <mxPoint x="500" y="495" />
              <mxPoint x="540" y="495" />
            </Array>
          </mxGeometry>
        </mxCell>
        <mxCell id="Ulziz3JBnXMaHyI9gNog-88" value="1" style="edgeLabel;html=1;align=center;verticalAlign=middle;resizable=0;points=[];" vertex="1" connectable="0" parent="Ulziz3JBnXMaHyI9gNog-78">
          <mxGeometry x="-0.8288" y="1" relative="1" as="geometry">
            <mxPoint y="-1" as="offset" />
          </mxGeometry>
        </mxCell>
        <mxCell id="Ulziz3JBnXMaHyI9gNog-93" value="Text" style="edgeLabel;html=1;align=center;verticalAlign=middle;resizable=0;points=[];" vertex="1" connectable="0" parent="Ulziz3JBnXMaHyI9gNog-78">
          <mxGeometry x="0.6876" y="1" relative="1" as="geometry">
            <mxPoint y="-1" as="offset" />
          </mxGeometry>
        </mxCell>
        <mxCell id="Ulziz3JBnXMaHyI9gNog-79" style="edgeStyle=orthogonalEdgeStyle;rounded=0;orthogonalLoop=1;jettySize=auto;html=1;" edge="1" parent="1" source="Ulziz3JBnXMaHyI9gNog-14" target="Ulziz3JBnXMaHyI9gNog-42">
          <mxGeometry relative="1" as="geometry" />
        </mxCell>
        <mxCell id="Ulziz3JBnXMaHyI9gNog-92" value="1" style="edgeLabel;html=1;align=center;verticalAlign=middle;resizable=0;points=[];" vertex="1" connectable="0" parent="Ulziz3JBnXMaHyI9gNog-79">
          <mxGeometry x="-0.7997" y="1" relative="1" as="geometry">
            <mxPoint as="offset" />
          </mxGeometry>
        </mxCell>
        <mxCell id="Ulziz3JBnXMaHyI9gNog-95" value="0...*" style="edgeLabel;html=1;align=center;verticalAlign=middle;resizable=0;points=[];" vertex="1" connectable="0" parent="Ulziz3JBnXMaHyI9gNog-79">
          <mxGeometry x="0.799" relative="1" as="geometry">
            <mxPoint as="offset" />
          </mxGeometry>
        </mxCell>
        <mxCell id="Ulziz3JBnXMaHyI9gNog-80" style="edgeStyle=orthogonalEdgeStyle;rounded=0;orthogonalLoop=1;jettySize=auto;html=1;entryX=0.5;entryY=0;entryDx=0;entryDy=0;" edge="1" parent="1" source="Ulziz3JBnXMaHyI9gNog-14" target="Ulziz3JBnXMaHyI9gNog-31">
          <mxGeometry relative="1" as="geometry">
            <Array as="points">
              <mxPoint x="770" y="495" />
              <mxPoint x="740" y="495" />
            </Array>
          </mxGeometry>
        </mxCell>
        <mxCell id="Ulziz3JBnXMaHyI9gNog-89" value="1" style="edgeLabel;html=1;align=center;verticalAlign=middle;resizable=0;points=[];" vertex="1" connectable="0" parent="Ulziz3JBnXMaHyI9gNog-80">
          <mxGeometry x="-0.8368" y="-1" relative="1" as="geometry">
            <mxPoint y="-1" as="offset" />
          </mxGeometry>
        </mxCell>
        <mxCell id="Ulziz3JBnXMaHyI9gNog-94" value="1...1" style="edgeLabel;html=1;align=center;verticalAlign=middle;resizable=0;points=[];" vertex="1" connectable="0" parent="Ulziz3JBnXMaHyI9gNog-80">
          <mxGeometry x="0.6191" y="1" relative="1" as="geometry">
            <mxPoint as="offset" />
          </mxGeometry>
        </mxCell>
        <mxCell id="Ulziz3JBnXMaHyI9gNog-82" style="edgeStyle=orthogonalEdgeStyle;rounded=0;orthogonalLoop=1;jettySize=auto;html=1;" edge="1" parent="1" target="Ulziz3JBnXMaHyI9gNog-61">
          <mxGeometry relative="1" as="geometry">
            <mxPoint x="840" y="765" as="sourcePoint" />
            <Array as="points">
              <mxPoint x="650" y="765" />
            </Array>
          </mxGeometry>
        </mxCell>
        <mxCell id="Ulziz3JBnXMaHyI9gNog-100" value="0...*" style="edgeLabel;html=1;align=center;verticalAlign=middle;resizable=0;points=[];" vertex="1" connectable="0" parent="Ulziz3JBnXMaHyI9gNog-82">
          <mxGeometry x="0.789" relative="1" as="geometry">
            <mxPoint as="offset" />
          </mxGeometry>
        </mxCell>
        <mxCell id="Ulziz3JBnXMaHyI9gNog-102" value="0...*" style="edgeLabel;html=1;align=center;verticalAlign=middle;resizable=0;points=[];" vertex="1" connectable="0" parent="Ulziz3JBnXMaHyI9gNog-82">
          <mxGeometry x="-0.8636" y="1" relative="1" as="geometry">
            <mxPoint as="offset" />
          </mxGeometry>
        </mxCell>
        <mxCell id="Ulziz3JBnXMaHyI9gNog-83" style="edgeStyle=orthogonalEdgeStyle;rounded=0;orthogonalLoop=1;jettySize=auto;html=1;entryX=0.5;entryY=0;entryDx=0;entryDy=0;" edge="1" parent="1" source="Ulziz3JBnXMaHyI9gNog-49" target="Ulziz3JBnXMaHyI9gNog-52">
          <mxGeometry relative="1" as="geometry">
            <Array as="points">
              <mxPoint x="860" y="810" />
              <mxPoint x="420" y="810" />
            </Array>
          </mxGeometry>
        </mxCell>
        <mxCell id="Ulziz3JBnXMaHyI9gNog-98" value="0...*" style="edgeLabel;html=1;align=center;verticalAlign=middle;resizable=0;points=[];" vertex="1" connectable="0" parent="Ulziz3JBnXMaHyI9gNog-83">
          <mxGeometry x="-0.9554" y="-2" relative="1" as="geometry">
            <mxPoint as="offset" />
          </mxGeometry>
        </mxCell>
        <mxCell id="Ulziz3JBnXMaHyI9gNog-99" value="0...*" style="edgeLabel;html=1;align=center;verticalAlign=middle;resizable=0;points=[];" vertex="1" connectable="0" parent="Ulziz3JBnXMaHyI9gNog-83">
          <mxGeometry x="0.9048" relative="1" as="geometry">
            <mxPoint as="offset" />
          </mxGeometry>
        </mxCell>
        <mxCell id="Ulziz3JBnXMaHyI9gNog-119" style="edgeStyle=orthogonalEdgeStyle;rounded=0;orthogonalLoop=1;jettySize=auto;html=1;entryX=0;entryY=0.5;entryDx=0;entryDy=0;" edge="1" parent="1" source="Ulziz3JBnXMaHyI9gNog-103" target="Ulziz3JBnXMaHyI9gNog-104">
          <mxGeometry relative="1" as="geometry" />
        </mxCell>
        <mxCell id="Ulziz3JBnXMaHyI9gNog-120" style="edgeStyle=orthogonalEdgeStyle;rounded=0;orthogonalLoop=1;jettySize=auto;html=1;entryX=0;entryY=0.5;entryDx=0;entryDy=0;" edge="1" parent="1" source="Ulziz3JBnXMaHyI9gNog-103" target="Ulziz3JBnXMaHyI9gNog-112">
          <mxGeometry relative="1" as="geometry">
            <Array as="points">
              <mxPoint x="1230" y="360" />
            </Array>
          </mxGeometry>
        </mxCell>
        <mxCell id="Ulziz3JBnXMaHyI9gNog-103" value="" style="ellipse;whiteSpace=wrap;html=1;aspect=fixed;" vertex="1" parent="1">
          <mxGeometry x="1190" y="185" width="80" height="80" as="geometry" />
        </mxCell>
        <mxCell id="Ulziz3JBnXMaHyI9gNog-126" style="edgeStyle=orthogonalEdgeStyle;rounded=0;orthogonalLoop=1;jettySize=auto;html=1;entryX=0;entryY=0.5;entryDx=0;entryDy=0;" edge="1" parent="1" source="Ulziz3JBnXMaHyI9gNog-104" target="Ulziz3JBnXMaHyI9gNog-105">
          <mxGeometry relative="1" as="geometry" />
        </mxCell>
        <mxCell id="Ulziz3JBnXMaHyI9gNog-104" value="Création Compte&amp;nbsp;&lt;div&gt;Connection&lt;/div&gt;" style="rounded=1;whiteSpace=wrap;html=1;" vertex="1" parent="1">
          <mxGeometry x="1630" y="195" width="120" height="60" as="geometry" />
        </mxCell>
        <mxCell id="Ulziz3JBnXMaHyI9gNog-128" style="edgeStyle=orthogonalEdgeStyle;rounded=0;orthogonalLoop=1;jettySize=auto;html=1;" edge="1" parent="1" source="Ulziz3JBnXMaHyI9gNog-105" target="Ulziz3JBnXMaHyI9gNog-106">
          <mxGeometry relative="1" as="geometry" />
        </mxCell>
        <mxCell id="Ulziz3JBnXMaHyI9gNog-105" value="Voir Voyage" style="rounded=1;whiteSpace=wrap;html=1;" vertex="1" parent="1">
          <mxGeometry x="1900" y="125" width="120" height="60" as="geometry" />
        </mxCell>
        <mxCell id="Ulziz3JBnXMaHyI9gNog-129" style="edgeStyle=orthogonalEdgeStyle;rounded=0;orthogonalLoop=1;jettySize=auto;html=1;entryX=0.5;entryY=0;entryDx=0;entryDy=0;" edge="1" parent="1" source="Ulziz3JBnXMaHyI9gNog-106" target="Ulziz3JBnXMaHyI9gNog-107">
          <mxGeometry relative="1" as="geometry" />
        </mxCell>
        <mxCell id="Ulziz3JBnXMaHyI9gNog-106" value="Generation Voyage" style="rounded=1;whiteSpace=wrap;html=1;" vertex="1" parent="1">
          <mxGeometry x="1900" y="230" width="120" height="60" as="geometry" />
        </mxCell>
        <mxCell id="Ulziz3JBnXMaHyI9gNog-130" style="edgeStyle=orthogonalEdgeStyle;rounded=0;orthogonalLoop=1;jettySize=auto;html=1;entryX=1;entryY=0.5;entryDx=0;entryDy=0;" edge="1" parent="1" source="Ulziz3JBnXMaHyI9gNog-107" target="Ulziz3JBnXMaHyI9gNog-108">
          <mxGeometry relative="1" as="geometry" />
        </mxCell>
        <mxCell id="Ulziz3JBnXMaHyI9gNog-107" value="Preferences" style="rounded=1;whiteSpace=wrap;html=1;" vertex="1" parent="1">
          <mxGeometry x="1900" y="330" width="120" height="60" as="geometry" />
        </mxCell>
        <mxCell id="Ulziz3JBnXMaHyI9gNog-131" style="edgeStyle=orthogonalEdgeStyle;rounded=0;orthogonalLoop=1;jettySize=auto;html=1;" edge="1" parent="1" source="Ulziz3JBnXMaHyI9gNog-108" target="Ulziz3JBnXMaHyI9gNog-109">
          <mxGeometry relative="1" as="geometry" />
        </mxCell>
        <mxCell id="Ulziz3JBnXMaHyI9gNog-108" value="Page drag &amp;amp; drop de l&#39;itineraire" style="rounded=1;whiteSpace=wrap;html=1;" vertex="1" parent="1">
          <mxGeometry x="1770" y="440" width="120" height="60" as="geometry" />
        </mxCell>
        <mxCell id="Ulziz3JBnXMaHyI9gNog-132" style="edgeStyle=orthogonalEdgeStyle;rounded=0;orthogonalLoop=1;jettySize=auto;html=1;entryX=0;entryY=0.5;entryDx=0;entryDy=0;" edge="1" parent="1" source="Ulziz3JBnXMaHyI9gNog-109" target="Ulziz3JBnXMaHyI9gNog-115">
          <mxGeometry relative="1" as="geometry" />
        </mxCell>
        <mxCell id="Ulziz3JBnXMaHyI9gNog-133" style="edgeStyle=orthogonalEdgeStyle;rounded=0;orthogonalLoop=1;jettySize=auto;html=1;entryX=0.5;entryY=0;entryDx=0;entryDy=0;" edge="1" parent="1" source="Ulziz3JBnXMaHyI9gNog-109" target="Ulziz3JBnXMaHyI9gNog-113">
          <mxGeometry relative="1" as="geometry" />
        </mxCell>
        <mxCell id="Ulziz3JBnXMaHyI9gNog-109" value="Valider" style="rounded=1;whiteSpace=wrap;html=1;" vertex="1" parent="1">
          <mxGeometry x="1770" y="555" width="120" height="60" as="geometry" />
        </mxCell>
        <mxCell id="Ulziz3JBnXMaHyI9gNog-124" style="edgeStyle=orthogonalEdgeStyle;rounded=0;orthogonalLoop=1;jettySize=auto;html=1;entryX=0.5;entryY=1;entryDx=0;entryDy=0;" edge="1" parent="1" source="Ulziz3JBnXMaHyI9gNog-110" target="Ulziz3JBnXMaHyI9gNog-104">
          <mxGeometry relative="1" as="geometry" />
        </mxCell>
        <mxCell id="Ulziz3JBnXMaHyI9gNog-125" style="edgeStyle=orthogonalEdgeStyle;rounded=0;orthogonalLoop=1;jettySize=auto;html=1;entryX=0;entryY=0.5;entryDx=0;entryDy=0;" edge="1" parent="1" source="Ulziz3JBnXMaHyI9gNog-110" target="Ulziz3JBnXMaHyI9gNog-108">
          <mxGeometry relative="1" as="geometry">
            <Array as="points">
              <mxPoint x="1700" y="470" />
            </Array>
          </mxGeometry>
        </mxCell>
        <mxCell id="Ulziz3JBnXMaHyI9gNog-110" value="Connecté ?" style="rounded=1;whiteSpace=wrap;html=1;" vertex="1" parent="1">
          <mxGeometry x="1630" y="330" width="120" height="60" as="geometry" />
        </mxCell>
        <mxCell id="Ulziz3JBnXMaHyI9gNog-123" style="edgeStyle=orthogonalEdgeStyle;rounded=0;orthogonalLoop=1;jettySize=auto;html=1;entryX=0;entryY=0.5;entryDx=0;entryDy=0;" edge="1" parent="1" source="Ulziz3JBnXMaHyI9gNog-111" target="Ulziz3JBnXMaHyI9gNog-110">
          <mxGeometry relative="1" as="geometry" />
        </mxCell>
        <mxCell id="Ulziz3JBnXMaHyI9gNog-111" value="Preferences" style="rounded=1;whiteSpace=wrap;html=1;" vertex="1" parent="1">
          <mxGeometry x="1470" y="330" width="120" height="60" as="geometry" />
        </mxCell>
        <mxCell id="Ulziz3JBnXMaHyI9gNog-122" style="edgeStyle=orthogonalEdgeStyle;rounded=0;orthogonalLoop=1;jettySize=auto;html=1;entryX=0;entryY=0.5;entryDx=0;entryDy=0;" edge="1" parent="1" source="Ulziz3JBnXMaHyI9gNog-112" target="Ulziz3JBnXMaHyI9gNog-111">
          <mxGeometry relative="1" as="geometry" />
        </mxCell>
        <mxCell id="Ulziz3JBnXMaHyI9gNog-112" value="Generation Voyage" style="rounded=1;whiteSpace=wrap;html=1;" vertex="1" parent="1">
          <mxGeometry x="1310" y="330" width="120" height="60" as="geometry" />
        </mxCell>
        <mxCell id="Ulziz3JBnXMaHyI9gNog-134" style="edgeStyle=orthogonalEdgeStyle;rounded=0;orthogonalLoop=1;jettySize=auto;html=1;entryX=0.5;entryY=0;entryDx=0;entryDy=0;" edge="1" parent="1" source="Ulziz3JBnXMaHyI9gNog-113" target="Ulziz3JBnXMaHyI9gNog-114">
          <mxGeometry relative="1" as="geometry" />
        </mxCell>
        <mxCell id="Ulziz3JBnXMaHyI9gNog-113" value="Payer" style="rounded=1;whiteSpace=wrap;html=1;" vertex="1" parent="1">
          <mxGeometry x="1770" y="670" width="120" height="60" as="geometry" />
        </mxCell>
        <mxCell id="Ulziz3JBnXMaHyI9gNog-135" style="edgeStyle=orthogonalEdgeStyle;rounded=0;orthogonalLoop=1;jettySize=auto;html=1;entryX=0.5;entryY=0;entryDx=0;entryDy=0;" edge="1" parent="1" source="Ulziz3JBnXMaHyI9gNog-114" target="Ulziz3JBnXMaHyI9gNog-116">
          <mxGeometry relative="1" as="geometry" />
        </mxCell>
        <mxCell id="Ulziz3JBnXMaHyI9gNog-136" style="edgeStyle=orthogonalEdgeStyle;rounded=0;orthogonalLoop=1;jettySize=auto;html=1;entryX=0.5;entryY=0;entryDx=0;entryDy=0;" edge="1" parent="1" source="Ulziz3JBnXMaHyI9gNog-114" target="Ulziz3JBnXMaHyI9gNog-118">
          <mxGeometry relative="1" as="geometry" />
        </mxCell>
        <mxCell id="Ulziz3JBnXMaHyI9gNog-137" style="edgeStyle=orthogonalEdgeStyle;rounded=0;orthogonalLoop=1;jettySize=auto;html=1;entryX=0.5;entryY=0;entryDx=0;entryDy=0;" edge="1" parent="1" source="Ulziz3JBnXMaHyI9gNog-114" target="Ulziz3JBnXMaHyI9gNog-117">
          <mxGeometry relative="1" as="geometry" />
        </mxCell>
        <mxCell id="Ulziz3JBnXMaHyI9gNog-114" value="Itinéraire" style="rounded=1;whiteSpace=wrap;html=1;" vertex="1" parent="1">
          <mxGeometry x="1770" y="780" width="120" height="60" as="geometry" />
        </mxCell>
        <mxCell id="Ulziz3JBnXMaHyI9gNog-115" value="Enregistrer Brouillon" style="rounded=1;whiteSpace=wrap;html=1;" vertex="1" parent="1">
          <mxGeometry x="1948" y="555" width="120" height="60" as="geometry" />
        </mxCell>
        <mxCell id="Ulziz3JBnXMaHyI9gNog-116" value="Transports" style="rounded=1;whiteSpace=wrap;html=1;" vertex="1" parent="1">
          <mxGeometry x="1600" y="920" width="120" height="60" as="geometry" />
        </mxCell>
        <mxCell id="Ulziz3JBnXMaHyI9gNog-117" value="Activités" style="rounded=1;whiteSpace=wrap;html=1;" vertex="1" parent="1">
          <mxGeometry x="1770" y="920" width="120" height="60" as="geometry" />
        </mxCell>
        <mxCell id="Ulziz3JBnXMaHyI9gNog-118" value="Hébergement" style="rounded=1;whiteSpace=wrap;html=1;" vertex="1" parent="1">
          <mxGeometry x="1930" y="920" width="120" height="60" as="geometry" />
        </mxCell>
      </root>
    </mxGraphModel>
  </diagram>
</mxfile>
